# xmcd CD database file
#
# Track frame offsets:
#	150
#	17747
#	40265
#	65680
#	93350
#	121835
#	141677
#	177365
#	212602
#	235760
#	251892
#	271005
#
# Disc length: 3957 seconds
#
# Revision: 3
# Processed by: cddbd v1.5.2PL0 Copyright (c) Steve Scherf et al.
# Submitted via: CDex 1.51
#
DISCID=ac0f730c
DTITLE=Various Artist - Earth Songs - Narada Collection Series
DYEAR=1993
DGENRE=New Age
TTITLE0=My Heart Soars - Friedemann
TTITLE1=Out Of The Earth - Simon Wynberg
TTITLE2=The Desert Song - Ira Stein
TTITLE3=A Thousand Small Gold Bells - David Arkenstone
TTITLE4=Earth Cry Mercy - Michael Gettel
TTITLE5=In Return - Eric Tingstad and Nancy Rumbel
TTITLE6=The Calling - Michael Jones
TTITLE7=Universal Garden - Kostia
TTITLE8=Remember , Remember - Sheldon Mirowitz
TTITLE9=Forgotten Places - Ralf Illenberger
TTITLE10=Which Is Yes - Spencer Brewer
TTITLE11=The Earth Tribe - Nando Lauria
EXTD=YEAR: 1993
EXTT0=
EXTT1=
EXTT2=
EXTT3=
EXTT4=
EXTT5=
EXTT6=
EXTT7=
EXTT8=
EXTT9=
EXTT10=
EXTT11=
PLAYORDER=
